<?xml version="1.0" standalone="no"?>
<!DOCTYPE svg PUBLIC "-//W3C//DTD SVG 20010904//EN"
 "http://www.w3.org/TR/2001/REC-SVG-20010904/DTD/svg10.dtd">
<svg version="1.0" xmlns="http://www.w3.org/2000/svg"
 width="2481.000000pt" height="1668.000000pt" viewBox="0 0 2481.000000 1668.000000"
 preserveAspectRatio="xMidYMid meet">

<g transform="translate(0.000000,1668.000000) scale(0.100000,-0.100000)"
fill="#000000" stroke="none">
<path d="M20580 14544 c-25 -14 -84 -38 -131 -55 -156 -54 -184 -81 -327 -308
-50 -79 -106 -144 -267 -312 l-205 -213 0 -58 c0 -123 32 -230 143 -473 76
-167 98 -236 104 -335 11 -168 -45 -312 -222 -575 -248 -370 -430 -833 -914
-2322 -92 -282 -122 -390 -127 -445 -10 -131 -25 -180 -119 -393 -51 -115
-103 -241 -114 -280 -12 -38 -40 -178 -62 -310 -58 -350 -96 -499 -162 -630
-41 -83 -141 -178 -331 -316 -88 -63 -164 -122 -170 -131 -6 -11 -6 -34 3 -73
l13 -57 51 7 c29 3 65 11 80 17 30 12 131 -4 142 -22 8 -13 -13 -243 -31 -349
-42 -250 -115 -485 -297 -951 -183 -471 -247 -689 -283 -960 -19 -151 -24
-434 -7 -451 9 -9 38 -9 120 1 l108 13 50 51 c40 41 63 79 113 191 35 77 78
162 95 190 18 27 108 128 201 224 l169 175 -6 67 c-7 86 -23 116 -93 176 l-56
48 5 160 c24 636 197 1267 443 1612 85 119 185 188 412 284 177 74 261 116
361 178 42 27 219 134 395 240 608 367 625 379 841 590 105 102 240 225 300
272 715 561 1222 1368 1510 2404 149 534 160 771 54 1182 -26 104 -28 119 -19
192 27 212 -51 471 -217 718 -265 397 -774 799 -1243 980 -77 30 -229 74 -250
72 -8 -1 -35 -12 -60 -25z m-63 -1173 c338 -118 668 -531 885 -1111 37 -98 41
-123 68 -365 17 -143 37 -300 47 -350 24 -129 22 -348 -5 -483 -98 -487 -407
-986 -942 -1522 -357 -357 -721 -647 -1128 -898 -197 -122 -296 -194 -375
-275 -55 -55 -61 -59 -94 -52 -19 3 -46 10 -58 15 -23 9 -23 9 -9 72 26 117
76 242 184 468 114 237 132 287 150 414 7 43 18 95 25 115 42 119 612 1399
778 1746 105 220 130 279 227 540 103 275 186 426 300 549 l63 67 -6 132 c-14
301 -88 536 -242 773 l-53 81 19 44 c37 81 43 83 166 40z"/>
<path d="M19111 14469 c-126 -25 -260 -90 -376 -183 -85 -67 -171 -164 -352
-391 -117 -147 -266 -300 -345 -353 -52 -35 -185 -102 -204 -102 -15 0 -22
-27 -30 -126 -6 -69 -4 -87 15 -128 11 -27 21 -54 21 -62 0 -21 -75 -159 -124
-227 -25 -36 -106 -137 -180 -226 -74 -88 -153 -187 -174 -218 -62 -91 -133
-242 -212 -448 -91 -237 -124 -309 -295 -637 -359 -686 -746 -1357 -839 -1457
-28 -30 -117 -107 -199 -173 -81 -65 -166 -142 -189 -171 -111 -139 -230 -366
-349 -660 -79 -198 -80 -192 37 -185 103 7 111 -3 83 -103 -55 -192 -160 -417
-315 -672 -334 -547 -330 -538 -533 -1184 -28 -89 -54 -169 -57 -178 -4 -9 -1
-15 9 -15 8 0 27 -6 42 -14 26 -14 31 -12 89 27 34 23 83 56 110 72 100 62
191 240 313 613 l86 265 107 176 c59 97 189 307 290 466 197 313 216 349 280
530 72 205 98 244 222 336 246 182 1134 665 1328 722 47 14 140 42 208 61 138
40 185 62 236 106 32 28 37 30 77 21 46 -11 54 -18 71 -74 17 -56 2 -116 -88
-340 -76 -188 -77 -194 -85 -307 -7 -120 -38 -258 -102 -465 -36 -115 -61
-185 -171 -472 -75 -197 -107 -311 -136 -473 -37 -209 -63 -305 -106 -392 -32
-63 -31 -78 5 -78 23 0 40 13 84 63 139 159 243 324 362 570 124 257 186 428
370 1017 123 394 165 516 244 712 61 151 77 203 131 417 22 90 54 196 71 237
36 86 107 190 178 259 39 38 51 56 51 80 0 55 -20 103 -50 125 -17 12 -30 28
-30 36 0 52 222 764 282 907 27 64 31 85 33 187 4 191 38 322 185 715 68 184
90 270 97 385 6 102 -11 196 -46 255 -10 17 -21 49 -25 71 -10 52 -49 118 -89
148 -42 32 -138 75 -244 110 l-82 27 5 32 c23 129 71 218 187 350 143 163 184
239 194 359 7 76 10 74 -76 57z m-896 -1929 c33 -17 100 -60 149 -97 l89 -66
-6 -181 c-4 -100 -12 -224 -17 -276 -37 -324 -123 -669 -240 -960 -29 -71 -39
-114 -43 -170 -16 -255 -153 -347 -702 -469 -372 -83 -494 -125 -605 -206 -53
-39 -93 -44 -140 -20 -76 39 -42 159 153 550 133 267 187 357 378 635 219 319
258 385 434 730 157 308 240 447 324 542 l41 46 63 -14 c34 -8 89 -28 122 -44z"/>
<path d="M13657 13050 c-29 -42 -144 -133 -316 -249 -262 -178 -338 -259 -460
-491 -78 -150 -131 -283 -248 -625 -152 -446 -220 -608 -265 -631 -16 -8 -33
-12 -38 -9 -6 4 -10 85 -10 198 0 141 -4 209 -15 252 -22 84 -84 211 -158 323
-85 128 -313 405 -340 414 -49 16 -276 67 -322 73 -124 15 -392 -80 -615 -218
-272 -169 -581 -470 -755 -734 -16 -26 -35 -43 -46 -43 -35 0 -99 25 -99 38 0
43 132 257 254 411 l66 84 0 105 0 104 -25 -6 c-121 -31 -248 -113 -328 -213
-72 -91 -108 -153 -219 -378 -51 -104 -130 -248 -174 -320 -125 -201 -250
-435 -460 -860 -221 -449 -230 -471 -284 -676 -38 -142 -53 -178 -194 -469
-85 -173 -196 -412 -249 -530 -157 -357 -355 -860 -404 -1029 -31 -105 -143
-565 -178 -731 -15 -69 -43 -178 -62 -243 -30 -99 -35 -129 -30 -179 4 -44 -2
-97 -24 -201 -31 -152 -37 -266 -15 -308 7 -14 16 -48 20 -75 16 -114 94 -212
205 -256 50 -20 73 -23 221 -23 122 0 187 5 250 18 122 26 310 90 420 144 89
43 103 54 255 208 96 97 211 201 288 260 350 268 738 636 992 940 137 163 240
310 430 608 206 325 326 488 458 624 122 126 250 226 266 210 15 -15 14 -64
-4 -177 -39 -235 -118 -482 -310 -960 -169 -422 -202 -519 -250 -750 -57 -276
-91 -376 -161 -473 -51 -70 -41 -82 64 -82 76 0 82 2 136 39 102 70 204 238
304 496 85 219 152 380 224 540 110 241 190 457 373 1000 167 496 224 652 322
890 46 112 84 179 226 398 224 348 197 348 330 -3 122 -325 206 -501 245 -516
16 -7 69 -9 132 -6 227 10 426 117 684 367 140 136 234 242 461 523 256 318
312 376 521 547 227 186 345 302 415 410 47 72 55 79 78 74 39 -9 91 -25 91
-29 0 -9 -169 -490 -227 -645 -112 -302 -277 -704 -548 -1340 -244 -572 -272
-643 -395 -1015 -191 -576 -287 -810 -385 -938 -31 -41 -35 -53 -35 -107 l0
-60 73 36 c101 51 182 111 258 191 127 134 205 278 360 660 101 251 146 344
379 793 590 1136 1319 2683 1484 3145 150 421 164 451 297 652 159 241 193
332 194 523 0 107 -2 120 -27 169 -16 29 -28 61 -28 72 0 16 -9 13 -67 -22
-181 -111 -422 -313 -590 -495 -193 -209 -304 -349 -748 -949 -255 -344 -321
-418 -703 -784 -167 -160 -247 -245 -320 -340 -178 -233 -230 -283 -386 -373
-118 -67 -192 -117 -231 -155 -36 -35 -37 -35 -83 -23 -319 80 -409 708 -231
1616 16 83 43 200 60 260 16 59 39 167 50 238 32 217 51 274 158 496 129 264
144 310 144 425 1 50 -3 111 -7 138 l-9 47 -48 0 c-37 0 -51 -5 -62 -20z
m-2547 -1782 c115 -56 237 -176 297 -293 85 -166 117 -321 117 -555 -1 -180
-20 -324 -69 -517 -44 -172 -98 -306 -232 -583 -423 -869 -828 -1526 -1273
-2064 -50 -60 -78 -84 -132 -113 -48 -25 -83 -53 -116 -92 -203 -244 -375
-415 -503 -500 -34 -23 -110 -56 -185 -82 -71 -24 -151 -59 -178 -77 -48 -32
-52 -33 -94 -22 -69 17 -131 53 -200 114 -35 31 -75 64 -89 73 l-26 17 6 296
c7 402 43 694 132 1082 199 866 624 1774 1181 2523 122 164 354 380 633 590
207 156 283 196 437 230 40 9 80 22 90 29 24 18 88 0 204 -56z"/>
<path d="M8470 12760 c-33 -22 -121 -41 -250 -55 -74 -8 -157 -20 -185 -26
-100 -23 -342 -150 -620 -323 -175 -109 -615 -413 -800 -551 -925 -695 -1831
-1704 -2720 -3030 -177 -264 -297 -487 -463 -865 -223 -506 -297 -669 -390
-865 -229 -482 -420 -993 -591 -1590 -120 -418 -137 -498 -163 -760 -38 -397
-30 -647 33 -960 49 -242 256 -646 383 -747 108 -87 300 -156 526 -190 55 -8
187 -13 375 -13 251 1 311 4 445 24 189 28 404 81 525 128 559 220 1446 878
1830 1358 44 55 129 154 189 220 148 163 192 234 256 407 54 147 88 223 121
270 19 25 27 108 12 108 -17 0 -141 -114 -201 -183 -34 -40 -124 -157 -200
-261 -217 -300 -325 -401 -661 -621 -409 -267 -1029 -536 -1366 -590 -275 -45
-502 23 -702 209 -136 126 -225 268 -289 458 -107 317 -119 650 -49 1303 35
325 39 341 112 520 63 152 66 165 73 270 9 124 19 158 114 374 35 80 103 259
150 396 193 558 265 731 391 930 17 28 34 67 38 89 13 83 151 328 437 775 79
124 190 304 248 400 542 911 1163 1595 1867 2057 207 136 270 164 595 266
l165 52 132 -2 c73 -1 143 2 157 8 33 12 123 -13 209 -57 76 -40 167 -130 209
-209 39 -73 76 -211 84 -314 6 -85 5 -93 -16 -122 -12 -16 -46 -72 -75 -124
-73 -128 -123 -184 -315 -349 -273 -236 -302 -273 -485 -634 -63 -124 -136
-264 -163 -311 -38 -67 -51 -102 -61 -165 -17 -102 -60 -239 -112 -351 -23
-49 -108 -253 -189 -454 -81 -201 -179 -439 -217 -530 -175 -411 -251 -712
-209 -830 9 -25 16 -57 16 -72 l0 -26 68 15 c184 41 350 115 484 216 146 110
251 244 443 567 54 91 136 225 182 298 338 537 606 1096 1093 2287 208 509
216 532 231 670 45 414 -109 1143 -283 1341 -60 68 -169 125 -304 159 -72 17
-93 18 -114 5z m-540 -3296 l28 -17 -24 -88 c-54 -203 -165 -434 -348 -726
-105 -169 -109 -173 -142 -173 l-34 0 0 70 c0 44 8 94 21 133 30 91 116 264
206 412 86 142 256 405 261 405 2 0 16 -7 32 -16z"/>
<path d="M22095 7763 c-753 -17 -1509 -105 -2092 -243 -153 -36 -247 -53 -494
-84 -311 -40 -471 -76 -571 -127 -49 -25 -105 -75 -122 -108 -27 -53 -66 -294
-66 -409 l0 -39 118 18 c332 51 658 135 1200 309 460 147 619 196 792 243 318
88 371 95 750 103 419 8 567 26 721 85 42 16 101 47 131 68 30 21 61 40 68 43
8 2 0 13 -21 26 -42 25 -77 62 -61 62 7 0 12 14 12 30 l0 30 -127 -2 c-71 -1
-177 -3 -238 -5z"/>
<path d="M17310 6989 c-70 -36 -189 -64 -365 -84 -183 -21 -236 -34 -443 -105
-94 -33 -340 -109 -545 -169 -204 -61 -465 -142 -579 -181 -175 -60 -228 -74
-350 -91 -345 -47 -371 -52 -476 -89 -397 -140 -540 -188 -977 -327 -269 -85
-512 -162 -540 -170 -27 -8 -163 -55 -300 -103 -213 -75 -275 -92 -410 -115
-170 -29 -181 -33 -540 -173 -126 -49 -412 -156 -635 -237 -506 -184 -920
-339 -1091 -410 -126 -53 -135 -55 -222 -55 -90 0 -93 -1 -246 -67 -86 -36
-309 -138 -496 -226 -445 -208 -549 -255 -903 -398 -765 -311 -1040 -451
-1326 -679 l-78 -62 7 -61 c15 -139 44 -227 92 -278 l24 -26 -19 -51 c-41
-108 -74 -140 -357 -346 -80 -58 -141 -132 -155 -189 -6 -23 -17 -56 -25 -74
-12 -27 -12 -38 -1 -70 l13 -38 84 3 c127 4 321 39 450 82 200 66 303 126 594
345 297 223 471 331 1085 673 536 300 588 326 845 427 242 96 278 113 635 300
704 370 1598 780 2700 1238 l315 131 110 6 c101 5 121 10 245 57 74 28 302
108 505 178 204 70 442 153 530 184 154 56 166 59 315 71 118 10 171 19 220
37 36 14 184 65 330 113 146 48 310 104 365 123 85 30 118 36 224 41 87 5 140
13 180 28 481 178 885 279 1179 295 62 3 114 9 117 12 2 4 9 81 15 171 10 149
16 196 35 310 13 72 -47 94 -135 49z"/>
</g>
</svg>
