<?xml version="1.0" standalone="no"?><!DOCTYPE svg PUBLIC "-//W3C//DTD SVG 1.1//EN" "http://www.w3.org/Graphics/SVG/1.1/DTD/svg11.dtd"><svg t="1739547266393" class="icon" viewBox="0 0 1024 1024" version="1.1" xmlns="http://www.w3.org/2000/svg" p-id="35978" xmlns:xlink="http://www.w3.org/1999/xlink" width="200" height="200"><path d="M511.616 443.328a684.8 684.8 0 0 1-71.04 96.768 72.96 72.96 0 0 1-54.976 27.136 34.176 34.176 0 0 1-7.552-67.52c28.544-6.4 30.912 1.216 57.152 8.256a418.304 418.304 0 0 0 69.312-91.072c-2.496-12.8-3.712-16.128-11.072-46.464a615.744 615.744 0 0 0-16.448-53.184 106.816 106.816 0 0 0-9.28-20.352c-16.384-27.264-17.664-21.12-160.704-20.032L250.24 542.208c-18.752 86.016-96.704 175.936-182.528 160a45.44 45.44 0 0 1-30.336-17.408 37.056 37.056 0 0 1 3.2-42.88 33.408 33.408 0 0 1 40-6.4 65.024 65.024 0 0 1 23.232 23.552c11.008 17.792 6.784 10.624 11.392 18.56a37.12 37.12 0 0 0 20.736-7.808 144.576 144.576 0 0 0 39.616-68.608c10.944-37.696 3.904-8.448 71.808-324.288h-62.848l7.104-28.928h61.824a283.648 283.648 0 0 1 23.552-79.68 158.72 158.72 0 0 1 160.384-102.4 48 48 0 0 1 30.72 17.536 29.12 29.12 0 0 1 4.992 18.56 39.04 39.04 0 0 1-7.872 24.96 29.568 29.568 0 0 1-24.256 10.368c-28.736 0-35.328-21.376-50.752-46.784a37.568 37.568 0 0 0-23.552 10.048 245.44 245.44 0 0 0-48.96 122.816 256.512 256.512 0 0 0-4.608 24.64c86.464-1.536 105.408-4.224 155.328-7.104a54.784 54.784 0 0 1 55.744 39.616 608.448 608.448 0 0 1 22.848 85.376v2.112C577.6 320 615.36 240.768 674.112 239.36c42.752-1.024 49.792 68.032-8.896 69.312a130.688 130.688 0 0 1-41.088-8.96 405.312 405.312 0 0 0-70.4 93.248c8.896 36.608 9.472 44.352 21.76 85.376a97.408 97.408 0 0 0 12.032 25.6 316.992 316.992 0 0 0-44.8 36.928 59.776 59.776 0 0 1-5.888-10.176 736 736 0 0 1-25.216-87.36z" fill="#212121" p-id="35979"></path><path d="M768 512a256 256 0 1 0 256 256 256 256 0 0 0-256-256z" fill="#C50B17" p-id="35980"></path><path d="M896 800h-256v-64h256z" fill="#FFFFFF" p-id="35981"></path></svg>