<?xml version="1.0" standalone="no"?><!DOCTYPE svg PUBLIC "-//W3C//DTD SVG 1.1//EN" "http://www.w3.org/Graphics/SVG/1.1/DTD/svg11.dtd"><svg t="1739754751180" class="icon" viewBox="0 0 1024 1024" version="1.1" xmlns="http://www.w3.org/2000/svg" p-id="19118" xmlns:xlink="http://www.w3.org/1999/xlink" width="200" height="200"><path d="M406.186667 846.904889l43.121777 57.628444c34.531556 45.624889 90.453333 45.624889 124.984889 0l43.121778-57.628444c30.72-40.96 84.024889-43.918222 119.011556-6.371556 75.946667 81.066667 137.841778 54.158222 137.841777-59.335111V300.771556c0-171.918222-40.106667-215.04-201.386666-215.04h-322.56c-161.28 0-201.386667 43.121778-201.386667 215.04v480.426666c0.398222 113.493333 62.691556 139.946667 138.24 59.335111 34.986667-37.546667 88.291556-34.588444 119.011556 6.371556z" fill="#1890FF" p-id="19119"></path><path d="M341.333333 330.695111a32.256 32.256 0 0 1-32.028444-32.028444c0-17.521778 14.506667-32.028444 32.028444-32.028445h341.333334c17.464889 0 32.028444 14.506667 32.028444 32.028445a32.256 32.256 0 0 1-32.028444 32.028444H341.333333zM384 501.361778a32.256 32.256 0 0 1-32.028444-32.028445c0-17.521778 14.506667-32.028444 32.028444-32.028444h256c17.464889 0 32.028444 14.506667 32.028444 32.028444a32.256 32.256 0 0 1-32.028444 32.028445h-256z" fill="#FFFFFF" p-id="19120"></path><path d="M813.056 537.486222c-31.061333 3.072-58.766222 17.806222-84.878222 43.918222l-151.04 151.04a121.230222 121.230222 0 0 0-32.199111 64.455112l-8.135111 57.685333c-4.608 31.061333 4.949333 62.008889 26.737777 83.797333 18.033778 18.033778 42.780444 27.875556 68.778667 27.875556l4.266667-0.113778 10.126222-1.024 58.140444-8.192c22.926222-3.242667 48.184889-15.928889 64.512-32.199111L920.462222 773.688889c25.941333-26.510222 40.96-54.385778 43.918222-84.764445 3.754667-38.968889-11.889778-75.491556-43.918222-107.52-31.857778-31.857778-68.835556-47.616-107.349333-43.918222z" fill="#FFFFFF" p-id="19121"></path><path d="M820.224 611.100444c14.734222-1.422222 30.663111 5.347556 47.900444 22.641778 17.408 17.351111 24.064 32.938667 22.641778 47.957334-1.194667 11.889778-8.192 24.917333-22.926222 39.936l-150.755556 150.755555a48.355556 48.355556 0 0 1-22.584888 11.377778l-62.179556 8.533333a23.096889 23.096889 0 0 1-16.497778-6.257778 23.893333 23.893333 0 0 1-5.802666-20.878222l8.135111-57.856a48.355556 48.355556 0 0 1 11.264-22.528l151.04-151.04c14.791111-14.791111 27.192889-21.390222 39.822222-22.641778z" fill="#A7D5FF" p-id="19122"></path></svg>