<?xml version="1.0" standalone="no"?><!DOCTYPE svg PUBLIC "-//W3C//DTD SVG 1.1//EN" "http://www.w3.org/Graphics/SVG/1.1/DTD/svg11.dtd"><svg t="1739755093536" class="icon" viewBox="0 0 1439 1024" version="1.1" xmlns="http://www.w3.org/2000/svg" p-id="26364" xmlns:xlink="http://www.w3.org/1999/xlink" width="281.0546875" height="200"><path d="M1439.829735 246.317613a40.937726 40.937726 0 0 0-40.880122-40.880121h-129.476119v81.760243h129.495321a40.937726 40.937726 0 0 0 40.86092-40.880122zM1398.930412 382.7639h-129.456918v81.760243h129.495321a40.937726 40.937726 0 0 0 40.880122-40.880122 40.918525 40.918525 0 0 0-40.918525-40.880121zM1398.930412 559.975098h-129.456918v81.760243h129.495321a40.880122 40.880122 0 1 0 0-81.760243zM1398.930412 737.205498h-129.456918v81.760243h129.495321a40.880122 40.880122 0 1 0 0-81.760243zM11.291266 217.880103A40.054454 40.054454 0 0 0 0.039152 247.124079a40.937726 40.937726 0 0 0 40.880121 40.707307h129.495322v-82.297886H40.919273a40.841718 40.841718 0 0 0-29.628007 12.346603zM0.039152 424.162463a40.937726 40.937726 0 0 0 40.880121 40.880122h129.495322v-82.278685H40.919273A40.707307 40.707307 0 0 0 0.039152 424.162463zM11.137654 572.398507A39.26719 39.26719 0 0 0 0.01995 601.047235a40.937726 40.937726 0 0 0 40.880122 40.707308h129.495321v-81.779445H40.900072a41.014532 41.014532 0 0 0-29.762418 12.423409zM11.291266 749.552101a40.054454 40.054454 0 0 0-11.252114 29.243976 40.937726 40.937726 0 0 0 40.880121 40.707308h129.495322v-82.297887H40.919273a40.841718 40.841718 0 0 0-29.628007 12.346603zM1100.07733 0H334.549531a129.648934 129.648934 0 0 0-129.495322 129.495321v764.990156a129.648934 129.648934 0 0 0 129.495322 129.495321h764.990155a129.648934 129.648934 0 0 0 129.495322-129.495321V141.016258h0.518442v-11.520937A129.648934 129.648934 0 0 0 1100.07733 0z m54.013989 534.801853H749.284028c-9.255152 0-16.878171 2.188978-22.52343 6.413321L543.808133 674.742823a97.793546 97.793546 0 0 0-36.233344-7.277391 100.251345 100.251345 0 0 0-100.136136 100.136136 100.251345 100.251345 0 0 0 100.136136 100.136136 100.251345 100.251345 0 0 0 100.136136-100.136136 98.446399 98.446399 0 0 0-7.987849-38.806353l162.233982-117.974386h392.134261v285.757618c0 29.41679-22.120197 52.439461-50.346491 52.439461H336.124059c-28.706332 0-50.346491-22.77305-50.346491-52.977105V489.697388h404.788089a38.575934 38.575934 0 0 0 22.062593-6.144499l0.192015-0.134411 183.221287-133.143618a97.927957 97.927957 0 0 0 36.252546 7.277391 100.251345 100.251345 0 0 0 100.136136-100.136136 100.251345 100.251345 0 0 0-100.136136-100.116934 100.251345 100.251345 0 0 0-100.136136 100.116934 98.523205 98.523205 0 0 0 7.968647 38.825555l-162.21478 117.974385H285.758367V128.439236c0-30.204054 21.640158-52.977104 50.34649-52.977105H1103.725627c28.706332 0 50.346491 22.77305 50.34649 52.977105z" fill="#ffffff" p-id="26365"></path></svg>