<?xml version="1.0" standalone="no"?>
<!DOCTYPE svg PUBLIC "-//W3C//DTD SVG 20010904//EN"
 "http://www.w3.org/TR/2001/REC-SVG-20010904/DTD/svg10.dtd">
<svg version="1.0" xmlns="http://www.w3.org/2000/svg"
 width="547.000000pt" height="457.000000pt" viewBox="0 0 547.000000 457.000000"
 preserveAspectRatio="xMidYMid meet">

<g transform="translate(0.000000,457.000000) scale(0.100000,-0.100000)"
fill="#000000" stroke="none">
<path d="M1270 2586 l0 -1296 647 0 c614 0 645 1 631 18 -8 9 -120 141 -248
292 -127 151 -287 340 -355 420 -67 80 -207 244 -309 365 l-186 220 2 105 3
105 320 6 c268 4 329 8 375 23 92 30 166 75 228 140 100 104 146 220 146 371
-1 246 -143 433 -381 502 -49 14 -123 17 -465 21 l-408 4 0 -1296z"/>
<path d="M4297 2718 c-13 -18 -194 -271 -403 -563 -513 -719 -552 -774 -592
-822 l-34 -43 531 0 531 0 0 730 c0 402 -2 730 -4 730 -3 0 -16 -15 -29 -32z"/>
<path d="M1339 976 c-2 -2 -3 -167 -1 -366 l2 -361 73 3 72 3 3 358 2 357 -59
0 c-33 0 -66 2 -73 5 -8 3 -16 4 -19 1z"/>
<path d="M190 610 l0 -360 75 0 75 0 0 145 0 145 242 -2 242 -3 101 -140 101
-140 92 -3 c51 -1 92 0 92 2 0 6 -101 150 -157 224 -18 24 -33 47 -33 52 0 4
20 13 43 19 57 14 131 90 147 152 24 88 -13 182 -94 237 l-48 32 -439 0 -439
0 0 -360z m848 194 c32 -22 30 -76 -5 -103 -25 -21 -35 -21 -357 -19 l-331 3
-3 68 -3 67 338 0 c290 0 342 -2 361 -16z"/>
<path d="M1735 954 c-142 -73 -168 -264 -50 -361 21 -17 57 -36 81 -42 26 -7
164 -11 358 -11 303 0 317 -1 336 -20 11 -11 20 -31 20 -45 0 -14 -9 -34 -20
-45 -19 -19 -33 -20 -435 -20 l-415 0 0 -80 0 -81 433 3 432 3 48 28 c30 18
60 47 78 75 25 39 29 56 29 113 0 59 -4 73 -32 115 -24 35 -49 57 -87 77 l-55
27 -321 0 c-311 0 -323 1 -349 21 -29 23 -33 54 -10 87 l15 22 420 0 419 0 0
75 0 75 -432 0 c-372 0 -437 -2 -463 -16z"/>
<path d="M2942 949 c-66 -26 -149 -105 -188 -179 -25 -49 -28 -65 -29 -155 0
-89 3 -106 27 -156 29 -59 81 -117 138 -155 73 -48 127 -54 502 -54 l348 0 0
80 0 80 -357 0 c-327 0 -362 2 -399 19 -80 36 -132 134 -118 221 8 50 36 93
87 134 l39 31 374 3 374 3 0 74 0 75 -372 -1 c-350 0 -376 -1 -426 -20z"/>
<path d="M5224 936 c-46 -46 -48 -101 -5 -148 26 -29 35 -33 81 -33 46 0 55 4
81 33 43 47 41 102 -5 148 -28 28 -42 34 -76 34 -34 0 -48 -6 -76 -34z m137
-12 c35 -37 33 -98 -4 -130 -55 -47 -132 -16 -144 58 -5 32 -1 41 25 68 40 39
88 41 123 4z"/>
<path d="M5273 914 c-16 -7 -18 -104 -3 -104 6 0 10 9 10 20 0 29 29 25 41 -7
7 -18 13 -23 20 -16 8 8 8 17 1 29 -7 13 -7 25 0 37 5 11 6 23 1 27 -11 12
-55 20 -70 14z m45 -31 c-2 -10 -10 -18 -18 -18 -8 0 -16 8 -18 18 -2 12 3 17
18 17 15 0 20 -5 18 -17z"/>
</g>
</svg>
