<?xml version="1.0" standalone="no"?><!DOCTYPE svg PUBLIC "-//W3C//DTD SVG 1.1//EN" "http://www.w3.org/Graphics/SVG/1.1/DTD/svg11.dtd"><svg t="1739546105917" class="icon" viewBox="0 0 1024 1024" version="1.1" xmlns="http://www.w3.org/2000/svg" p-id="28261" xmlns:xlink="http://www.w3.org/1999/xlink" width="200" height="200"><path d="M64 64h896v896H64z m54.048 2.144a51.968 51.968 0 0 0-52.032 52v787.904a52 52 0 0 0 52.032 52.032h788.064a52 52 0 0 0 52.032-52.032V118.144a51.968 51.968 0 0 0-52.032-52z m-21.792 832.384a29.152 29.152 0 0 0 29.152 29.184h773.248a29.152 29.152 0 0 0 29.152-29.184V125.408a29.12 29.12 0 0 0-29.152-29.152H125.408a29.12 29.12 0 0 0-29.152 29.152z" fill="#0D9B35" p-id="28262"></path><path d="M816.64 176.064l-213.184 671.648h-182.528L207.744 176.064h128.512l176.672 553.376 175.2-553.376h128.512z" fill="#FFFFFF" p-id="28263"></path></svg>