<?xml version="1.0" standalone="no"?><!DOCTYPE svg PUBLIC "-//W3C//DTD SVG 1.1//EN" "http://www.w3.org/Graphics/SVG/1.1/DTD/svg11.dtd"><svg t="1739545731484" class="icon" viewBox="0 0 1024 1024" version="1.1" xmlns="http://www.w3.org/2000/svg" p-id="22478" xmlns:xlink="http://www.w3.org/1999/xlink" width="200" height="200"><path d="M960 657.6L830.08 512 960 366.4l-190.336-41.408 19.04-194.144-178.432 78.528-98.496-168.448-98.048 168.448-178.432-78.528 19.04 194.144L64 366.4 193.888 512 64 657.6l190.336 41.408-19.04 194.144 178.432-78.528 98.496 168.448 98.016-168.448 178.912 78.528-19.52-194.144z" fill="#DD1100" p-id="22479" class="custom-cursor-on-hover"></path><path d="M619.296 366.4a222.976 222.976 0 0 1-109.44 27.584 174.272 174.272 0 0 1-102.784-27.584 227.2 227.2 0 0 1-7.072 107.2 199.2 199.2 0 0 1-59.968 93.248 238.528 238.528 0 0 1 100.416 38.08 309.088 309.088 0 0 1 70.912 87.072 262.208 262.208 0 0 1 68.512-86.112 243.36 243.36 0 0 1 103.744-38.4 401.984 401.984 0 0 1-61.856-94.208 214.976 214.976 0 0 1-2.464-106.88z m-60.8 209.376a167.456 167.456 0 0 0-46.624 52.352 199.552 199.552 0 0 0-48-51.872 166.112 166.112 0 0 0-62.336-27.136 218.848 218.848 0 0 0 35.68-64.224 197.76 197.76 0 0 0 7.136-66.624 202.144 202.144 0 0 0 66.624 14.272 209.664 209.664 0 0 0 69.472-14.752 144.672 144.672 0 0 0 2.368 68.992 214.72 214.72 0 0 0 39.968 61.856 224.992 224.992 0 0 0-64.384 27.136z m135.616-128.48c-11.424-37.6 20.928-214.592 20.928-214.592s-121.44 82.304-206.624 82.304-199.36-82.304-199.36-82.304 37.6 128.48 14.752 210.784-140.384 175.104-140.384 175.104 153.216 9.056 211.2 48 117.056 190.336 117.056 190.336 78.528-166.4 111.36-190.336 217.6-48 217.6-48-135.136-133.696-146.56-171.296z m-90.88 190.816a302.208 302.208 0 0 0-90.88 133.696s-45.216-100.864-95.168-135.136S265.6 593.376 265.6 593.376s78.528-69.472 97.536-131.2a381.536 381.536 0 0 0-3.2-158.464 361.6 361.6 0 0 0 149.408 51.872c65.184 0 155.136-51.872 155.136-51.872s-26.176 97.056-5.248 157.504 99.456 132.288 99.456 132.288a337.824 337.824 0 0 0-155.584 44.8z" fill="#FFFFFF" p-id="22480"></path></svg>