<?xml version="1.0" standalone="no"?><!DOCTYPE svg PUBLIC "-//W3C//DTD SVG 1.1//EN" "http://www.w3.org/Graphics/SVG/1.1/DTD/svg11.dtd"><svg t="1739544764608" class="icon" viewBox="0 0 1120 1024" version="1.1" xmlns="http://www.w3.org/2000/svg" p-id="9905" xmlns:xlink="http://www.w3.org/1999/xlink" width="218.75" height="200"><path d="M993.176368 702.044087c-55.345528-139.752234-101.289192-283.089131-154.16728-423.76761-23.356653-59.894633-46.212943-120.289629-78.049036-176.330319-12.642767-20.11957-24.743156-42.242503-45.479586-55.116355-5.230897-3.323023-11.130219-4.734354-16.958879-4.621676-9.70934 0.183339-19.365206 4.526187-26.784715 10.790277-27.827457 22.044632-44.324167 54.111808-62.82424 83.635153-32.684036 54.806969-67.140352 112.195966-121.792629 147.809611-25.667491 18.114297-59.277773 20.079465-84.020929 39.505783-33.841365 25.514709-56.848528 61.705108-84.599594 93.077123-6.321384 7.555104-16.110934 10.561103-24.666765 14.64804C211.043597 465.433359 128.216282 499.121941 46.200626 534.578983c69.4531 53.726032 143.453394 101.518366 214.292997 153.395728 19.426319-3.853943 38.927119-11.833019 58.968388-8.286551 31.759701 9.944243 50.374362 40.391923 64.944101 68.219379 29.601646 60.664276 50.991222 124.722237 74.964735 187.699261 40.082538-2.851307 76.15835-23.509436 107.146499-47.792334 59.661639-48.330893 105.10303-110.769358 155.131721-168.427635 23.971604-25.207234 48.407285-55.230941 84.406705-62.245576 36.381377-8.786914 75.348602 4.23972 102.328114 29.292261 37.848091 33.839455 71.380071 72.959462 115.625938 98.859947-5.935607-29.292261-20.195961-55.576612-30.833456-83.251286z m-618.790891-98.474172c-34.918483 20.658129-71.996932 37.655203-108.303827 55.693109-56.965025-38.157476-112.465246-78.587595-168.427634-118.131573 75.465099-33.067903 152.085616-63.786772 228.553351-94.620228 36.228595 28.289624 73.616428 55.15455 109.845022 83.444174-17.03527 27.210597-37.540616 52.494222-61.666912 73.614518z m77.66135-94.813116c-35.999421-27.055904-72.457189-53.380361-107.918051-81.131426 22.739793-30.988149 47.639552-60.933555 77.470371-85.369236 19.733794-12.642767 43.86009-16.14913 64.365437-27.558178 48.640278-24.280989 81.824678-68.83624 113.506077-111.386218-40.623007 105.450611-83.982733 211.325193-147.423834 305.445058z" p-id="9906" fill="#ffffff"></path></svg>