<?xml version="1.0" standalone="no"?><!DOCTYPE svg PUBLIC "-//W3C//DTD SVG 1.1//EN" "http://www.w3.org/Graphics/SVG/1.1/DTD/svg11.dtd"><svg t="1739544690439" class="icon" viewBox="0 0 1024 1024" version="1.1" xmlns="http://www.w3.org/2000/svg" p-id="7738" xmlns:xlink="http://www.w3.org/1999/xlink" width="200" height="200"><path d="M928.224 556.8h1.184a46.368 46.368 0 0 0 30.016-10.112 47.136 47.136 0 0 0 16.608-32.992V508.8a45.216 45.216 0 0 0-44.032-41.6H816v-84.608H929.504A45.152 45.152 0 0 0 976 339.2v-3.904a45.184 45.184 0 0 0-20.672-35.2 46.56 46.56 0 0 0-26.72-7.2h-114.016a94.72 94.72 0 0 0-8.896-33.088 93.088 93.088 0 0 0-54.4-46.752 85.888 85.888 0 0 0-20.128-4.16V158.304 92.288A45.248 45.248 0 0 0 687.392 48h-3.712a44.8 44.8 0 0 0-42.208 44.416V208H556.8V159.392 92.608A45.12 45.12 0 0 0 513.696 48H508.8a45.056 45.056 0 0 0-41.6 44.256v116h-84.448v-51.84-63.648a43.712 43.712 0 0 0-12.8-31.2 44.8 44.8 0 0 0-31.488-13.568H336a45.12 45.12 0 0 0-42.912 44.192V208.96a93.856 93.856 0 0 0-78.912 60.8 92.096 92.096 0 0 0-5.152 23.232H92.032A45.216 45.216 0 0 0 48 336v3.04a45.344 45.344 0 0 0 18.4 34.912 46.816 46.816 0 0 0 28.384 8.736H208.032V467.2h-115.52A45.696 45.696 0 0 0 48 509.216v5.984a44.8 44.8 0 0 0 44.352 41.6H208v84.8h-9.344c-19.616-0.224-39.232 0-58.816 0H98.784a52.256 52.256 0 0 0-29.376 6.752A45.984 45.984 0 0 0 48 684.8v3.2a45.344 45.344 0 0 0 44 42.784h117.472a90.624 90.624 0 0 0 63.296 80 86.784 86.784 0 0 0 20.192 4.096v116.64a44.8 44.8 0 1 0 89.6-2.944v-112.864H467.2v112.512a45.248 45.248 0 0 0 43.104 47.776h4.896a45.152 45.152 0 0 0 41.6-44.32q0.192-34.112 0-68.192V816h84.608v115.2a45.536 45.536 0 0 0 43.392 44.8h3.808a45.056 45.056 0 0 0 37.12-23.712 52.576 52.576 0 0 0 5.344-26.656v-110.464a85.472 85.472 0 0 0 19.84-4.096 93.696 93.696 0 0 0 60.352-60.416 90.688 90.688 0 0 0 3.936-19.616h116.672a45.504 45.504 0 0 0 44.128-43.648v-3.776a45.088 45.088 0 0 0-44.224-42.176H816V556.8z" fill="#C5C5C5" opacity=".3" p-id="7739"></path><path d="M336.48 64h1.792a29.12 29.12 0 0 1 28.352 28.576c0.192 35.456 0 70.912 0 106.368h-57.6V92.288A29.024 29.024 0 0 1 336.48 64zM509.984 64h3.712a29.184 29.184 0 0 1 27.072 28.448c0.192 35.488 0 71.008 0 106.528H483.2v-106.56A29.152 29.152 0 0 1 509.984 64zM684.544 64h2.848a29.024 29.024 0 0 1 27.488 28.192c0.224 35.584 0 71.2 0 106.784h-57.6V92.544A29.184 29.184 0 0 1 684.544 64zM64 336.576a29.056 29.056 0 0 1 28.224-27.488c35.584-0.224 71.136 0 106.688 0v57.6H95.328a31.456 31.456 0 0 1-19.2-5.536 29.568 29.568 0 0 1-12.128-22.88zM825.152 308.96h103.456a32 32 0 0 1 17.952 4.576 29.568 29.568 0 0 1 13.44 22.912v1.856a29.856 29.856 0 0 1-9.6 20.832 30.624 30.624 0 0 1-21.664 7.488h-103.584V308.96zM64 510.208a29.216 29.216 0 0 1 28.416-26.944c35.488-0.224 71.008 0 106.496 0v57.6H92.48a29.28 29.28 0 0 1-28.48-26.848zM825.152 483.2h106.432a29.248 29.248 0 0 1 28.448 26.72v3.744a30.272 30.272 0 0 1-10.592 20.512 31.136 31.136 0 0 1-20.832 6.624h-103.456v-57.6zM77.856 661.696a35.872 35.872 0 0 1 20.576-4.352c33.376 0.192 66.752-0.192 100.128 0.192 0.896 19.2 0 38.4 0.384 57.6H92.352A29.152 29.152 0 0 1 64 687.456V684.8a29.6 29.6 0 0 1 13.856-23.104zM825.152 657.376h106.368a29.248 29.248 0 0 1 28.48 27.104v2.88a29.152 29.152 0 0 1-28.416 27.488c-35.488 0.224-70.976 0-106.432 0v-57.472zM308.992 824.992h57.6v103.776a30.624 30.624 0 0 1-7.52 21.664 29.792 29.792 0 0 1-20.896 9.6h-1.664a29.024 29.024 0 0 1-27.52-28.224c-0.16-35.616 0.064-71.2 0-106.816zM483.2 824.992h57.6v106.56a29.248 29.248 0 0 1-26.752 28.448h-3.712a30.08 30.08 0 0 1-19.808-9.792 30.784 30.784 0 0 1-7.296-21.536l-0.032-103.68zM657.504 931.392v-106.4h57.6v100.608a37.696 37.696 0 0 1-3.36 18.88 29.44 29.44 0 0 1-24.192 15.488H684.8a29.152 29.152 0 0 1-27.296-28.576zM791.424 267.168a77.728 77.728 0 0 0-45.504-38.976A103.84 103.84 0 0 0 712.128 224c-137.6 0.256-275.2-0.352-412.96 0.32a77.952 77.952 0 0 0-70.144 51.072A115.552 115.552 0 0 0 224 317.888v400a85.536 85.536 0 0 0 8.576 39.008 77.792 77.792 0 0 0 45.44 38.944 120.192 120.192 0 0 0 39.648 4.16H706.24a120.384 120.384 0 0 0 39.776-4.064 77.728 77.728 0 0 0 49.984-50.336A121.6 121.6 0 0 0 800 706.272v-400a85.952 85.952 0 0 0-8.576-39.104z" fill="#1A348F" p-id="7740"></path><path d="M240 265.824l2.688-6.4q30.976 0 61.92 0.768h12.608q5.728 0 12.608-0.384 24.832-1.152 89.824-1.152 12.992 0 25.216 0.192t23.712 0.576a7.488 7.488 0 0 1 3.456 3.456l-0.768 6.112q-2.304 3.808-11.456 3.808h-3.2a329.6 329.6 0 0 0-35.2 1.728 69.728 69.728 0 0 0-32 7.84 13.824 13.824 0 0 0-4.96 11.072 129.6 129.6 0 0 0 12.608 44.8l58.176 134.944 20.288 44.8q29.472 71.104 58.208 145.248l5.728 14.528 25.6-62.688q19.84-47.392 40.064-100.928l26.336-71.872q0.768-2.304 4.192-15.296a544.832 544.832 0 0 0 37.024-128 17.952 17.952 0 0 0-5.152-11.648 37.28 37.28 0 0 0-16.64-9.6 247.136 247.136 0 0 0-29.824-4.576l-28.288-3.456a10.784 10.784 0 0 1-3.456-6.4l1.152-3.2 123.84-1.152H755.2a99.2 99.2 0 0 1 28.32 2.688l0.384 3.2a20.512 20.512 0 0 1-2.304 8.032 78.368 78.368 0 0 1-16.832 3.808 115.2 115.2 0 0 0-39.808 8.992 58.08 58.08 0 0 0-16 21.984l-100.288 248.48q-46.912 112-66.752 173.536l-11.04 33.248a16.992 16.992 0 0 1-8.416 3.2 44.256 44.256 0 0 1-9.6-1.152q-45.504-117.632-74.176-181.792L321.76 317.44a103.904 103.904 0 0 0-18.912-28.48 174.816 174.816 0 0 0-44.128-13.568 139.104 139.104 0 0 1-14.912-3.808 10.432 10.432 0 0 1-3.808-5.76z" fill="#C5C2FF" p-id="7741"></path></svg>